<svg xmlns="http://www.w3.org/2000/svg" xmlns:xlink="http://www.w3.org/1999/xlink" width="500" zoomAndPan="magnify" viewBox="0 0 375 374.999991" height="500" preserveAspectRatio="xMidYMid meet" version="1.0"><defs><filter x="0%" y="0%" width="100%" height="100%" id="0df697c27c"><feColorMatrix values="0 0 0 0 1 0 0 0 0 1 0 0 0 0 1 0 0 0 1 0" color-interpolation-filters="sRGB"/></filter><g/><mask id="2a40385310"><g filter="url(#0df697c27c)"><rect x="-37.5" width="450" fill="#000000" y="-37.499999" height="449.999989" fill-opacity="0.1"/></g></mask><clipPath id="ab09e05ece"><path d="M 0 0 L 175.046875 0 L 175.046875 140.832031 L 0 140.832031 Z M 0 0 " clip-rule="nonzero"/></clipPath><clipPath id="0b0c88d2ac"><path d="M 81.296875 -46.667969 C 29.519531 -46.667969 -12.453125 -4.695312 -12.453125 47.082031 C -12.453125 98.855469 29.519531 140.832031 81.296875 140.832031 C 133.074219 140.832031 175.046875 98.855469 175.046875 47.082031 C 175.046875 -4.695312 133.074219 -46.667969 81.296875 -46.667969 Z M 81.296875 -46.667969 " clip-rule="nonzero"/></clipPath><clipPath id="c7289c3769"><path d="M 0 0 L 175.046875 0 L 175.046875 140.832031 L 0 140.832031 Z M 0 0 " clip-rule="nonzero"/></clipPath><clipPath id="1d129a0c62"><path d="M 81.296875 -46.667969 C 29.519531 -46.667969 -12.453125 -4.695312 -12.453125 47.082031 C -12.453125 98.855469 29.519531 140.832031 81.296875 140.832031 C 133.074219 140.832031 175.046875 98.855469 175.046875 47.082031 C 175.046875 -4.695312 133.074219 -46.667969 81.296875 -46.667969 Z M 81.296875 -46.667969 " clip-rule="nonzero"/></clipPath><clipPath id="ed234bad0c"><rect x="0" width="176" y="0" height="141"/></clipPath><clipPath id="0511cc0111"><rect x="0" width="176" y="0" height="141"/></clipPath><mask id="d88e9b819e"><g filter="url(#0df697c27c)"><rect x="-37.5" width="450" fill="#000000" y="-37.499999" height="449.999989" fill-opacity="0.18"/></g></mask><clipPath id="e7a224bf39"><path d="M 0.5 0.832031 L 188 0.832031 L 188 235 L 0.5 235 Z M 0.5 0.832031 " clip-rule="nonzero"/></clipPath><clipPath id="4d2ba91d10"><path d="M 129.421875 0.832031 C 58.222656 0.832031 0.5 58.550781 0.5 129.753906 C 0.5 200.957031 58.222656 258.675781 129.421875 258.675781 C 200.625 258.675781 258.347656 200.957031 258.347656 129.753906 C 258.347656 58.550781 200.625 0.832031 129.421875 0.832031 Z M 129.421875 0.832031 " clip-rule="nonzero"/></clipPath><clipPath id="2adaacc5df"><path d="M 0.5 0.832031 L 188 0.832031 L 188 235 L 0.5 235 Z M 0.5 0.832031 " clip-rule="nonzero"/></clipPath><clipPath id="444b5c562c"><path d="M 129.421875 0.832031 C 58.222656 0.832031 0.5 58.550781 0.5 129.753906 C 0.5 200.957031 58.222656 258.675781 129.421875 258.675781 C 200.625 258.675781 258.347656 200.957031 258.347656 129.753906 C 258.347656 58.550781 200.625 0.832031 129.421875 0.832031 Z M 129.421875 0.832031 " clip-rule="nonzero"/></clipPath><clipPath id="a1eceed048"><rect x="0" width="188" y="0" height="235"/></clipPath><clipPath id="bcdad9b4ee"><rect x="0" width="188" y="0" height="235"/></clipPath><mask id="0603e37dab"><g filter="url(#0df697c27c)"><rect x="-37.5" width="450" fill="#000000" y="-37.499999" height="449.999989" fill-opacity="0.31"/></g></mask><clipPath id="adf4dc009f"><path d="M 0 0.386719 L 113.046875 0.386719 L 113.046875 107 L 0 107 Z M 0 0.386719 " clip-rule="nonzero"/></clipPath><clipPath id="8b1b2ce9aa"><path d="M 43.933594 0.386719 C 5.761719 0.386719 -25.183594 31.328125 -25.183594 69.5 C -25.183594 107.671875 5.761719 138.613281 43.933594 138.613281 C 82.105469 138.613281 113.046875 107.671875 113.046875 69.5 C 113.046875 31.328125 82.105469 0.386719 43.933594 0.386719 Z M 43.933594 0.386719 " clip-rule="nonzero"/></clipPath><clipPath id="23eb543126"><path d="M 0 0.386719 L 113.046875 0.386719 L 113.046875 107 L 0 107 Z M 0 0.386719 " clip-rule="nonzero"/></clipPath><clipPath id="858f6e0b11"><path d="M 43.933594 0.386719 C 5.761719 0.386719 -25.183594 31.328125 -25.183594 69.5 C -25.183594 107.671875 5.761719 138.613281 43.933594 138.613281 C 82.105469 138.613281 113.046875 107.671875 113.046875 69.5 C 113.046875 31.328125 82.105469 0.386719 43.933594 0.386719 Z M 43.933594 0.386719 " clip-rule="nonzero"/></clipPath><clipPath id="baeaa129f8"><rect x="0" width="114" y="0" height="107"/></clipPath><clipPath id="d6c5b4b145"><rect x="0" width="114" y="0" height="107"/></clipPath></defs><rect x="-37.5" width="450" fill="#ffffff" y="-37.499999" height="449.999989" fill-opacity="1"/><rect x="-37.5" width="450" fill="#ffffff" y="-37.499999" height="449.999989" fill-opacity="1"/><g mask="url(#2a40385310)"><g transform="matrix(1, 0, 0, 1, 0, 0)"><g clip-path="url(#0511cc0111)"><g clip-path="url(#ab09e05ece)"><g clip-path="url(#0b0c88d2ac)"><g transform="matrix(1, 0, 0, 1, 0, 0)"><g clip-path="url(#ed234bad0c)"><g clip-path="url(#c7289c3769)"><g clip-path="url(#1d129a0c62)"><path fill="#e2a9f1" d="M -12.453125 -46.667969 L 175.046875 -46.667969 L 175.046875 140.832031 L -12.453125 140.832031 Z M -12.453125 -46.667969 " fill-opacity="1" fill-rule="nonzero"/></g></g></g></g></g></g></g></g></g><g mask="url(#d88e9b819e)"><g transform="matrix(1, 0, 0, 1, 187, 140)"><g clip-path="url(#bcdad9b4ee)"><g clip-path="url(#e7a224bf39)"><g clip-path="url(#4d2ba91d10)"><g transform="matrix(1, 0, 0, 1, 0.000000000000028422, 0)"><g clip-path="url(#a1eceed048)"><g clip-path="url(#2adaacc5df)"><g clip-path="url(#444b5c562c)"><path fill="#c18dcf" d="M 0.5 0.832031 L 258.347656 0.832031 L 258.347656 258.675781 L 0.5 258.675781 Z M 0.5 0.832031 " fill-opacity="1" fill-rule="nonzero"/></g></g></g></g></g></g></g></g></g><g mask="url(#0603e37dab)"><g transform="matrix(1, 0, 0, 1, 0, 268)"><g clip-path="url(#d6c5b4b145)"><g clip-path="url(#adf4dc009f)"><g clip-path="url(#8b1b2ce9aa)"><g transform="matrix(1, 0, 0, 1, 0, 0)"><g clip-path="url(#baeaa129f8)"><g clip-path="url(#23eb543126)"><g clip-path="url(#858f6e0b11)"><path fill="#e2a9f1" d="M -25.183594 0.386719 L 113.046875 0.386719 L 113.046875 138.613281 L -25.183594 138.613281 Z M -25.183594 0.386719 " fill-opacity="1" fill-rule="nonzero"/></g></g></g></g></g></g></g></g></g><g fill="#4a37e0" fill-opacity="1"><g transform="translate(106.535153, 202.499987)"><g><path d="M 9.65625 -15.125 L 11.640625 -15.125 C 13.503906 -15.125 14.894531 -15.488281 15.8125 -16.21875 C 16.738281 -16.957031 17.203125 -18.03125 17.203125 -19.4375 C 17.203125 -20.851562 16.816406 -21.898438 16.046875 -22.578125 C 15.273438 -23.253906 14.0625 -23.59375 12.40625 -23.59375 L 9.65625 -23.59375 Z M 23.328125 -19.65625 C 23.328125 -16.582031 22.363281 -14.226562 20.4375 -12.59375 C 18.519531 -10.96875 15.789062 -10.15625 12.25 -10.15625 L 9.65625 -10.15625 L 9.65625 0 L 3.59375 0 L 3.59375 -28.5625 L 12.71875 -28.5625 C 16.175781 -28.5625 18.804688 -27.8125 20.609375 -26.3125 C 22.421875 -24.820312 23.328125 -22.601562 23.328125 -19.65625 Z M 23.328125 -19.65625 "/></g></g></g><g fill="#4a37e0" fill-opacity="1"><g transform="translate(131.649886, 202.499987)"><g><path d="M 20.453125 -7.9375 C 20.453125 -5.351562 19.523438 -3.316406 17.671875 -1.828125 C 15.816406 -0.347656 13.234375 0.390625 9.921875 0.390625 C 6.878906 0.390625 4.1875 -0.179688 1.84375 -1.328125 L 1.84375 -6.953125 C 3.769531 -6.097656 5.398438 -5.492188 6.734375 -5.140625 C 8.066406 -4.785156 9.285156 -4.609375 10.390625 -4.609375 C 11.722656 -4.609375 12.742188 -4.863281 13.453125 -5.375 C 14.160156 -5.882812 14.515625 -6.640625 14.515625 -7.640625 C 14.515625 -8.203125 14.359375 -8.695312 14.046875 -9.125 C 13.734375 -9.5625 13.273438 -9.984375 12.671875 -10.390625 C 12.066406 -10.796875 10.832031 -11.441406 8.96875 -12.328125 C 7.21875 -13.148438 5.90625 -13.9375 5.03125 -14.6875 C 4.164062 -15.445312 3.472656 -16.328125 2.953125 -17.328125 C 2.429688 -18.328125 2.171875 -19.5 2.171875 -20.84375 C 2.171875 -23.363281 3.023438 -25.347656 4.734375 -26.796875 C 6.453125 -28.242188 8.820312 -28.96875 11.84375 -28.96875 C 13.320312 -28.96875 14.734375 -28.789062 16.078125 -28.4375 C 17.429688 -28.082031 18.84375 -27.585938 20.3125 -26.953125 L 18.359375 -22.25 C 16.835938 -22.875 15.578125 -23.304688 14.578125 -23.546875 C 13.585938 -23.796875 12.609375 -23.921875 11.640625 -23.921875 C 10.492188 -23.921875 9.613281 -23.65625 9 -23.125 C 8.394531 -22.59375 8.09375 -21.894531 8.09375 -21.03125 C 8.09375 -20.5 8.210938 -20.035156 8.453125 -19.640625 C 8.703125 -19.242188 9.097656 -18.859375 9.640625 -18.484375 C 10.179688 -18.117188 11.460938 -17.453125 13.484375 -16.484375 C 16.148438 -15.210938 17.976562 -13.929688 18.96875 -12.640625 C 19.957031 -11.359375 20.453125 -9.789062 20.453125 -7.9375 Z M 20.453125 -7.9375 "/></g></g></g><g fill="#4a37e0" fill-opacity="1"><g transform="translate(153.678983, 202.499987)"><g><path d="M 12.484375 -16.796875 L 18.4375 -28.5625 L 24.96875 -28.5625 L 15.484375 -11.109375 L 15.484375 0 L 9.46875 0 L 9.46875 -10.921875 L 0 -28.5625 L 6.5625 -28.5625 Z M 12.484375 -16.796875 "/></g></g></g><g fill="#4a37e0" fill-opacity="1"><g transform="translate(178.637481, 202.499987)"><g><path d="M 21.5625 0 L 1.609375 0 L 1.609375 -4.203125 L 8.765625 -11.453125 C 10.890625 -13.617188 12.273438 -15.125 12.921875 -15.96875 C 13.578125 -16.8125 14.046875 -17.585938 14.328125 -18.296875 C 14.617188 -19.015625 14.765625 -19.757812 14.765625 -20.53125 C 14.765625 -21.675781 14.445312 -22.523438 13.8125 -23.078125 C 13.1875 -23.640625 12.347656 -23.921875 11.296875 -23.921875 C 10.179688 -23.921875 9.101562 -23.664062 8.0625 -23.15625 C 7.019531 -22.65625 5.9375 -21.9375 4.8125 -21 L 1.53125 -24.890625 C 2.9375 -26.085938 4.097656 -26.929688 5.015625 -27.421875 C 5.941406 -27.921875 6.953125 -28.300781 8.046875 -28.5625 C 9.140625 -28.832031 10.363281 -28.96875 11.71875 -28.96875 C 13.5 -28.96875 15.070312 -28.640625 16.4375 -27.984375 C 17.8125 -27.335938 18.875 -26.425781 19.625 -25.25 C 20.382812 -24.082031 20.765625 -22.742188 20.765625 -21.234375 C 20.765625 -19.921875 20.53125 -18.6875 20.0625 -17.53125 C 19.601562 -16.375 18.890625 -15.191406 17.921875 -13.984375 C 16.953125 -12.773438 15.242188 -11.050781 12.796875 -8.8125 L 9.125 -5.359375 L 9.125 -5.078125 L 21.5625 -5.078125 Z M 21.5625 0 "/></g></g></g><g fill="#4a37e0" fill-opacity="1"><g transform="translate(201.467287, 202.499987)"><g><path d="M 3.59375 -28.5625 L 12.484375 -28.5625 C 16.535156 -28.5625 19.472656 -27.984375 21.296875 -26.828125 C 23.128906 -25.671875 24.046875 -23.835938 24.046875 -21.328125 C 24.046875 -19.617188 23.644531 -18.21875 22.84375 -17.125 C 22.039062 -16.03125 20.976562 -15.375 19.65625 -15.15625 L 19.65625 -14.96875 C 21.457031 -14.5625 22.757812 -13.800781 23.5625 -12.6875 C 24.363281 -11.582031 24.765625 -10.113281 24.765625 -8.28125 C 24.765625 -5.675781 23.820312 -3.644531 21.9375 -2.1875 C 20.0625 -0.726562 17.507812 0 14.28125 0 L 3.59375 0 Z M 9.65625 -17.25 L 13.171875 -17.25 C 14.804688 -17.25 15.988281 -17.5 16.71875 -18 C 17.457031 -18.507812 17.828125 -19.351562 17.828125 -20.53125 C 17.828125 -21.625 17.425781 -22.40625 16.625 -22.875 C 15.832031 -23.351562 14.566406 -23.59375 12.828125 -23.59375 L 9.65625 -23.59375 Z M 9.65625 -12.4375 L 9.65625 -5 L 13.59375 -5 C 15.257812 -5 16.488281 -5.316406 17.28125 -5.953125 C 18.082031 -6.597656 18.484375 -7.578125 18.484375 -8.890625 C 18.484375 -11.253906 16.789062 -12.4375 13.40625 -12.4375 Z M 9.65625 -12.4375 "/></g></g></g><g fill="#4a37e0" fill-opacity="1"><g transform="translate(228.33966, 202.499987)"><g><path d="M 3.59375 0 L 3.59375 -28.5625 L 9.65625 -28.5625 L 9.65625 0 Z M 3.59375 0 "/></g></g></g><g fill="#4a37e0" fill-opacity="1"><g transform="translate(241.580554, 202.499987)"><g><path d="M 3.59375 -28.5625 L 12.484375 -28.5625 C 16.535156 -28.5625 19.472656 -27.984375 21.296875 -26.828125 C 23.128906 -25.671875 24.046875 -23.835938 24.046875 -21.328125 C 24.046875 -19.617188 23.644531 -18.21875 22.84375 -17.125 C 22.039062 -16.03125 20.976562 -15.375 19.65625 -15.15625 L 19.65625 -14.96875 C 21.457031 -14.5625 22.757812 -13.800781 23.5625 -12.6875 C 24.363281 -11.582031 24.765625 -10.113281 24.765625 -8.28125 C 24.765625 -5.675781 23.820312 -3.644531 21.9375 -2.1875 C 20.0625 -0.726562 17.507812 0 14.28125 0 L 3.59375 0 Z M 9.65625 -17.25 L 13.171875 -17.25 C 14.804688 -17.25 15.988281 -17.5 16.71875 -18 C 17.457031 -18.507812 17.828125 -19.351562 17.828125 -20.53125 C 17.828125 -21.625 17.425781 -22.40625 16.625 -22.875 C 15.832031 -23.351562 14.566406 -23.59375 12.828125 -23.59375 L 9.65625 -23.59375 Z M 9.65625 -12.4375 L 9.65625 -5 L 13.59375 -5 C 15.257812 -5 16.488281 -5.316406 17.28125 -5.953125 C 18.082031 -6.597656 18.484375 -7.578125 18.484375 -8.890625 C 18.484375 -11.253906 16.789062 -12.4375 13.40625 -12.4375 Z M 9.65625 -12.4375 "/></g></g></g></svg>